<?xml version="1.0" encoding="utf-8"?>
<!-- Generator: Adobe Illustrator 19.1.0, SVG Export Plug-In . SVG Version: 6.00 Build 0)  -->
<svg version="1.1" id="Layer_1" xmlns="http://www.w3.org/2000/svg" xmlns:xlink="http://www.w3.org/1999/xlink" x="0px" y="0px"
	 viewBox="0 0 1054.1 486.6" style="enable-background:new 0 0 1054.1 486.6;" xml:space="preserve">
<style type="text/css">
	.st0{fill:#FFFFFF;}
</style>
<g>
	<path class="st0" d="M175.2,214.3c0,9.6,0.4,19,1.8,25.6h-24.3l-2-11.8H150c-6.3,8.3-17.5,14.2-31.5,14.2
		C97,242.3,85,226.7,85,210.5c0-26.7,23.8-40.5,63.2-40.3v-1.8c0-7-2.8-18.6-21.7-18.6c-10.5,0-21.4,3.3-28.7,7.9l-5.3-17.5
		c7.9-4.8,21.7-9.4,38.5-9.4c34.1,0,44,21.7,44,45.1V214.3z M148.9,187.8c-19-0.2-37.2,3.7-37.2,19.9c0,10.5,6.8,15.3,15.3,15.3
		c10.9,0,18.6-7,21.2-14.7c0.7-2,0.7-3.9,0.7-5.9V187.8z"/>
	<path class="st0" d="M203.6,167.7c0-14.4-0.2-24.9-0.9-34.3h23.2l1.1,20.1h0.7c5.3-14.9,17.7-22.5,29.3-22.5c2.6,0,4.2,0.2,6.3,0.7
		v25.2c-2.4-0.4-4.8-0.7-8.1-0.7c-12.7,0-21.7,8.1-24.1,20.3c-0.4,2.4-0.7,5.3-0.7,8.1v55.4h-26.9V167.7z"/>
	<path class="st0" d="M317.4,106v27.3H343v20.1h-25.6v47c0,13.1,3.5,19.7,13.8,19.7c4.8,0,7.4-0.2,10.5-1.1l0.4,20.3
		c-3.9,1.5-11.2,2.8-19.5,2.8c-10.1,0-18.2-3.3-23.2-8.8c-5.9-6.1-8.5-16-8.5-30v-50.1h-15.1v-20.1h15.1v-19.9L317.4,106z"/>
	<path class="st0" d="M381,194.1c0.7,19.3,15.5,27.6,32.8,27.6c12.5,0,21.2-2,29.5-4.8l3.9,18.4c-9.2,3.9-21.9,6.8-37.2,6.8
		c-34.6,0-54.9-21.2-54.9-53.8c0-29.5,17.9-57.3,52.1-57.3c34.6,0,45.9,28.4,45.9,51.9c0,5-0.4,9-0.9,11.4H381z M427.8,175.3
		c0.2-9.8-4.2-26-22.1-26c-16.6,0-23.6,15.1-24.7,26H427.8z"/>
	<path class="st0" d="M543.6,239.9v-86.4h-38.7v86.4h-26.9v-86.4h-14.4v-20.1h14.4v-2.2c0-13.8,3.5-26.5,12-35.2
		c6.6-6.8,16.4-10.9,30-10.9c5.7,0,11.4,1.5,14.7,3.1l-4.4,20.1c-2.6-1.3-6.1-2.2-9.8-2.2c-12.3,0-15.8,10.3-15.8,23.6v3.7h38.9
		v-4.6c0-13.8,3.7-27.6,12.9-36.3c7.9-7.4,18.6-10.3,28-10.3c7,0,12.9,1.3,17.1,2.6l-2,20.8c-2.8-1.1-6.3-2-11.4-2
		c-13.3,0-17.9,11.2-17.9,24.3v5.5h23.4v20.1h-23.2v86.4H543.6z"/>
	<path class="st0" d="M627.2,194.1c0.7,19.3,15.5,27.6,32.8,27.6c12.5,0,21.2-2,29.5-4.8l3.9,18.4c-9.2,3.9-21.9,6.8-37.2,6.8
		c-34.6,0-54.9-21.2-54.9-53.8c0-29.5,17.9-57.3,52.1-57.3c34.6,0,45.9,28.4,45.9,51.9c0,5-0.4,9-0.9,11.4H627.2z M674,175.3
		c0.2-9.8-4.2-26-22.1-26c-16.6,0-23.6,15.1-24.7,26H674z"/>
	<path class="st0" d="M799.3,236.6c-5.7,2.6-16.8,5.5-30.2,5.5c-33.3,0-54.9-21.4-54.9-54.5c0-31.9,21.9-56.7,59.3-56.7
		c9.8,0,19.9,2.2,26,4.8l-4.8,20.3c-4.4-2.2-10.7-4.2-20.3-4.2c-20.6,0-32.8,15.1-32.6,34.6c0,21.9,14.2,34.3,32.6,34.3
		c9.2,0,16-2,21.2-4.2L799.3,236.6z"/>
	<path class="st0" d="M853.4,106v27.3H879v20.1h-25.6v47c0,13.1,3.5,19.7,13.8,19.7c4.8,0,7.4-0.2,10.5-1.1l0.4,20.3
		c-3.9,1.5-11.2,2.8-19.5,2.8c-10.1,0-18.2-3.3-23.2-8.8c-5.9-6.1-8.5-16-8.5-30v-50.1h-15.1v-20.1h15.1v-19.9L853.4,106z"/>
	<path class="st0" d="M898.2,214.9c5.9,3.7,17.5,7.9,27.1,7.9c11.8,0,17.1-5,17.1-12c0-7.2-4.4-10.7-17.5-15.5
		c-20.8-7-29.3-18.4-29.3-31.1c0-18.8,15.5-33.3,40.3-33.3c11.8,0,22.1,2.8,28.4,6.3l-5.5,18.8c-4.4-2.6-13.1-6.1-22.5-6.1
		c-9.6,0-14.9,4.8-14.9,11.4c0,6.8,5,9.8,18.6,14.9c19.5,6.8,28.2,16.6,28.4,32.4c0,19.5-15.1,33.5-43.3,33.5
		c-12.9,0-24.5-3.1-32.4-7.4L898.2,214.9z"/>
</g>
<g>
	<path class="st0" d="M147.5,282.2v111.5h-12.7V282.2H147.5z"/>
	<path class="st0" d="M167.8,393.6V282.2h11.9l20.5,52.3c4.6,12.1,10.4,26.8,14.2,38.9h0.3c-1-17.5-1.5-31.9-1.5-51.3v-39.9h11.4
		v111.5h-11.9l-21.2-53.6c-4.6-11.2-9.4-24-13.4-37.9h-0.3c1,14.9,1.3,29.1,1.3,52.9v38.5H167.8z"/>
	<path class="st0" d="M257.6,293.6h-20.3v-11.4h53.4v11.4h-20.3v100.1h-12.7V293.6z"/>
	<path class="st0" d="M343.8,340.7h-28v41.8h31.8v11.1h-44.5V282.2h42.5v11.1h-29.8V330h28V340.7z"/>
	<path class="st0" d="M361.8,283.8c5.3-1.5,11.9-2.2,18.2-2.2c11.1,0,19.4,2.3,25.1,7.9c5.5,5.6,7.8,13.1,7.8,21.8
		c0,14.2-6.6,23.5-17.9,28.8v0.3c8.3,2.5,12.6,10.4,14.9,25c2.6,15.2,4.8,24.6,6.5,28.1h-12.9c-1.7-3.3-3.8-13.9-6-27.5
		c-2.5-15.4-7.3-21-18.2-21h-5v48.5h-12.6V283.8z M374.4,335.3h5.5c12.1,0,20.2-8.9,20.2-22.3c0-12.9-5.3-20.8-18.9-21
		c-2.6,0-5.1,0.2-6.8,0.7V335.3z"/>
	<path class="st0" d="M429.5,393.6V282.2h11.9l20.5,52.3c4.6,12.1,10.4,26.8,14.2,38.9h0.3c-1-17.5-1.5-31.9-1.5-51.3v-39.9h11.4
		v111.5h-11.9l-21.2-53.6c-4.6-11.2-9.4-24-13.4-37.9h-0.3c1,14.9,1.3,29.1,1.3,52.9v38.5H429.5z"/>
	<path class="st0" d="M519.6,360.2l-7.3,33.4h-12.4l25.5-111.5h14.1l24.8,111.5h-12.6l-7.3-33.4H519.6z M542.6,350l-5.8-28.3
		c-1.7-7.9-3.1-17.2-4.5-25.5h-0.5c-1.3,8.4-3,18-4.6,25.5l-5.8,28.3H542.6z"/>
	<path class="st0" d="M581.3,293.6H561v-11.4h53.4v11.4h-20.3v100.1h-12.7V293.6z"/>
	<path class="st0" d="M639.5,282.2v111.5h-12.7V282.2H639.5z"/>
	<path class="st0" d="M718.3,337.1c0,41.8-14.2,57.9-32.3,57.9c-18.5,0-30.9-19.7-30.9-57.2c0-36.9,13.4-56.9,32.8-56.9
		C706.9,280.8,718.3,301.5,718.3,337.1z M668.3,337.9c0,23,4.5,45.8,18.7,45.8c14.2,0,18-24.3,18-46.1c0-20.8-3.8-45.5-18.2-45.5
		C672.8,292.1,668.3,315.2,668.3,337.9z"/>
	<path class="st0" d="M733.7,393.6V282.2h11.9l20.5,52.3c4.6,12.1,10.4,26.8,14.2,38.9h0.3c-1-17.5-1.5-31.9-1.5-51.3v-39.9h11.4
		v111.5h-11.9l-21.2-53.6c-4.6-11.2-9.4-24-13.4-37.9h-0.3c1,14.9,1.3,29.1,1.3,52.9v38.5H733.7z"/>
	<path class="st0" d="M823.8,360.2l-7.3,33.4h-12.4l25.5-111.5h14.1l24.8,111.5h-12.6l-7.3-33.4H823.8z M846.8,350l-5.8-28.3
		c-1.7-7.9-3.1-17.2-4.5-25.5h-0.5c-1.3,8.4-3,18-4.6,25.5l-5.8,28.3H846.8z"/>
	<path class="st0" d="M882.4,282.2h12.7v100.7h31.3v10.8h-44V282.2z"/>
</g>
<g>
	<path class="st0" d="M1054.1,486.6H0V0h1054.1V486.6z M18,468.6h1018.1V18H18V468.6z"/>
</g>
</svg>
