<svg xmlns="http://www.w3.org/2000/svg" viewBox="0 0 500.9 231.3"><path d="M83.2 101.8c0 4.6.2 9 .8 12.2H72.5l-.9-5.6h-.3c-3 4-8.3 6.8-15 6.8-10.2 0-15.9-7.4-15.9-15.1 0-12.7 11.3-19.2 30-19.1v-.8c0-3.3-1.4-8.8-10.3-8.8-5 0-10.2 1.6-13.6 3.7L44 66.7c3.7-2.3 10.3-4.5 18.3-4.5 16.2 0 20.9 10.3 20.9 21.4v18.2zM70.8 89.2c-9-.1-17.7 1.8-17.7 9.5 0 5 3.2 7.3 7.3 7.3 5.2 0 8.8-3.3 10.1-7 .3-.9.3-1.9.3-2.8v-7zm26-9.5c0-6.9-.1-11.9-.4-16.3h11l.5 9.6h.3c2.5-7.1 8.4-10.7 13.9-10.7 1.2 0 2 .1 3 .3v12c-1.1-.2-2.3-.3-3.8-.3-6 0-10.3 3.8-11.4 9.7-.2 1.1-.3 2.5-.3 3.8V114H96.8V79.7zm54-29.3v13H163V73h-12.2v22.4c0 6.2 1.7 9.4 6.5 9.4 2.3 0 3.5-.1 5-.5l.2 9.7c-1.9.7-5.3 1.4-9.3 1.4-4.8 0-8.6-1.6-11-4.2-2.8-2.9-4.1-7.6-4.1-14.2V72.9h-7.2v-9.6h7.2v-9.5l12.7-3.4zm30.3 41.9c.3 9.1 7.4 13.1 15.6 13.1 5.9 0 10.1-.9 14-2.3l1.9 8.7c-4.4 1.9-10.4 3.2-17.7 3.2-16.4 0-26.1-10.1-26.1-25.6 0-14 8.5-27.2 24.7-27.2 16.4 0 21.8 13.5 21.8 24.6 0 2.4-.2 4.3-.4 5.4h-33.8zm22.2-9c.1-4.7-2-12.4-10.5-12.4-7.9 0-11.2 7.2-11.7 12.4h22.2zm55 30.7V72.9h-18.4V114h-12.8V72.9h-6.9v-9.6h6.9v-1c0-6.5 1.7-12.6 5.7-16.7 3.1-3.2 7.8-5.2 14.2-5.2 2.7 0 5.4.7 7 1.5l-2.1 9.6c-1.2-.6-2.9-1-4.7-1-5.8 0-7.5 4.9-7.5 11.2v1.8h18.5v-2.2c0-6.5 1.8-13.1 6.1-17.3 3.7-3.5 8.8-4.9 13.3-4.9 3.3 0 6.1.6 8.1 1.2l-.9 9.9c-1.4-.5-3-.9-5.4-.9-6.3 0-8.5 5.3-8.5 11.5v2.6H282V73h-11v41h-12.7zM298 92.3c.3 9.1 7.4 13.1 15.6 13.1 5.9 0 10.1-.9 14-2.3l1.9 8.7c-4.4 1.9-10.4 3.2-17.7 3.2-16.4 0-26.1-10.1-26.1-25.6 0-14 8.5-27.2 24.7-27.2 16.4 0 21.8 13.5 21.8 24.6 0 2.4-.2 4.3-.4 5.4H298zm22.3-9c.1-4.7-2-12.4-10.5-12.4-7.9 0-11.2 7.2-11.7 12.4h22.2zm59.6 29.1c-2.7 1.2-8 2.6-14.3 2.6-15.8 0-26.1-10.2-26.1-25.9 0-15.2 10.4-26.9 28.2-26.9 4.7 0 9.5 1 12.4 2.3l-2.3 9.7c-2.1-1-5.1-2-9.7-2-9.8 0-15.6 7.2-15.5 16.4 0 10.4 6.8 16.3 15.5 16.3 4.4 0 7.6-.9 10.1-2l1.7 9.5zm25.6-62v13h12.2V73h-12.2v22.4c0 6.2 1.7 9.4 6.5 9.4 2.3 0 3.5-.1 5-.5l.2 9.7c-1.9.7-5.3 1.4-9.3 1.4-4.8 0-8.6-1.6-11-4.2-2.8-2.9-4.1-7.6-4.1-14.2V72.9h-7.2v-9.6h7.2v-9.5l12.7-3.4zm21.4 51.7c2.8 1.8 8.3 3.7 12.9 3.7 5.6 0 8.1-2.4 8.1-5.7 0-3.4-2.1-5.1-8.3-7.4-9.9-3.3-13.9-8.7-13.9-14.8 0-8.9 7.4-15.8 19.1-15.8 5.6 0 10.5 1.4 13.5 3l-2.6 8.9c-2.1-1.2-6.2-2.9-10.7-2.9-4.6 0-7.1 2.3-7.1 5.4 0 3.2 2.4 4.7 8.8 7.1 9.3 3.2 13.4 7.9 13.5 15.4 0 9.3-7.2 15.9-20.6 15.9-6.1 0-11.6-1.5-15.4-3.5l2.7-9.3zM70.1 134.1v53H64v-53h6.1zm9.6 53v-53h5.7l9.7 24.8c2.2 5.7 5 12.7 6.8 18.5h.2c-.5-8.3-.7-15.2-.7-24.4v-18.9h5.4v53h-5.7L91 161.6c-2.2-5.3-4.5-11.4-6.4-18h-.2c.5 7.1.6 13.8.6 25.2v18.3h-5.3zm42.7-47.6h-9.7v-5.4h25.4v5.4h-9.7v47.6h-6.1v-47.6zm41 22.4h-13.3v19.9h15.1v5.3H144v-53h20.2v5.3h-14.1v17.4h13.3v5.1zm8.5-27c2.5-.7 5.7-1 8.6-1 5.3 0 9.2 1.1 11.9 3.8 2.6 2.7 3.7 6.2 3.7 10.4 0 6.8-3.1 11.2-8.5 13.7v.2c3.9 1.2 6 5 7.1 11.9 1.3 7.2 2.3 11.7 3.1 13.4h-6.1c-.8-1.6-1.8-6.6-2.8-13-1.2-7.3-3.5-10-8.6-10h-2.4v23h-6v-52.4zm6 24.4h2.6c5.7 0 9.6-4.2 9.6-10.6 0-6.1-2.5-9.9-9-10-1.3 0-2.4.1-3.2.3v20.3zm26.2 27.8v-53h5.7l9.7 24.8c2.2 5.7 5 12.7 6.8 18.5h.2c-.5-8.3-.7-15.2-.7-24.4v-18.9h5.4v53h-5.7l-10.1-25.5c-2.2-5.3-4.5-11.4-6.4-18h-.2c.5 7.1.6 13.8.6 25.2v18.3h-5.3zm42.8-15.9l-3.5 15.9h-5.9l12.1-53h6.7l11.8 53h-6l-3.5-15.9h-11.7zm11-4.9l-2.8-13.4c-.8-3.8-1.5-8.2-2.1-12.1h-.2c-.6 4-1.4 8.6-2.2 12.1l-2.8 13.4h10.1zm18.4-26.8h-9.7v-5.4H292v5.4h-9.7v47.6h-6.1v-47.6zm27.6-5.4v53h-6.1v-53h6.1zm37.4 26.1c0 19.9-6.8 27.5-15.3 27.5-8.8 0-14.7-9.4-14.7-27.2 0-17.5 6.4-27 15.6-27 9 0 14.4 9.8 14.4 26.7zm-23.7.4c0 10.9 2.1 21.8 8.9 21.8 6.8 0 8.6-11.6 8.6-21.9 0-9.9-1.8-21.6-8.6-21.6-6.8-.1-8.9 10.9-8.9 21.7zm31 26.5v-53h5.7l9.7 24.8c2.2 5.7 5 12.7 6.8 18.5h.2c-.5-8.3-.7-15.2-.7-24.4v-18.9h5.4v53H370l-10-25.5c-2.2-5.3-4.5-11.4-6.4-18h-.2c.5 7.1.6 13.8.6 25.2v18.3h-5.4zm42.9-15.9l-3.5 15.9h-5.9l12.1-53h6.7l11.8 53h-6l-3.5-15.9h-11.7zm10.9-4.9l-2.8-13.4c-.8-3.8-1.5-8.2-2.1-12.1h-.2c-.6 4-1.4 8.6-2.2 12.1l-2.8 13.4h10.1zm16.9-32.2h6.1V182h14.9v5.1h-20.9v-53z"/><path d="M500.9 231.3H0V0h500.9v231.3zM8.6 222.7h483.8V8.6H8.6v214.1z"/></svg>