<svg id="Layer_1" xmlns="http://www.w3.org/2000/svg" viewBox="0 0 1054.1 486.6"><style>.st0{fill:#fff}</style><path class="st0" d="M175.2 214.3c0 9.6.4 19 1.8 25.6h-24.3l-2-11.8h-.7c-6.3 8.3-17.5 14.2-31.5 14.2-21.5 0-33.5-15.6-33.5-31.8 0-26.7 23.8-40.5 63.2-40.3v-1.8c0-7-2.8-18.6-21.7-18.6-10.5 0-21.4 3.3-28.7 7.9l-5.3-17.5c7.9-4.8 21.7-9.4 38.5-9.4 34.1 0 44 21.7 44 45.1v38.4zm-26.3-26.5c-19-.2-37.2 3.7-37.2 19.9 0 10.5 6.8 15.3 15.3 15.3 10.9 0 18.6-7 21.2-14.7.7-2 .7-3.9.7-5.9v-14.6zm54.7-20.1c0-14.4-.2-24.9-.9-34.3h23.2l1.1 20.1h.7C233 138.6 245.4 131 257 131c2.6 0 4.2.2 6.3.7v25.2c-2.4-.4-4.8-.7-8.1-.7-12.7 0-21.7 8.1-24.1 20.3-.4 2.4-.7 5.3-.7 8.1V240h-26.9v-72.3zM317.4 106v27.3H343v20.1h-25.6v47c0 13.1 3.5 19.7 13.8 19.7 4.8 0 7.4-.2 10.5-1.1l.4 20.3c-3.9 1.5-11.2 2.8-19.5 2.8-10.1 0-18.2-3.3-23.2-8.8-5.9-6.1-8.5-16-8.5-30v-50.1h-15.1v-20.1h15.1v-19.9l26.5-7.2zm63.6 88.1c.7 19.3 15.5 27.6 32.8 27.6 12.5 0 21.2-2 29.5-4.8l3.9 18.4c-9.2 3.9-21.9 6.8-37.2 6.8-34.6 0-54.9-21.2-54.9-53.8 0-29.5 17.9-57.3 52.1-57.3 34.6 0 45.9 28.4 45.9 51.9 0 5-.4 9-.9 11.4H381zm46.8-18.8c.2-9.8-4.2-26-22.1-26-16.6 0-23.6 15.1-24.7 26h46.8zm115.8 64.6v-86.4h-38.7v86.4H478v-86.4h-14.4v-20.1H478v-2.2c0-13.8 3.5-26.5 12-35.2 6.6-6.8 16.4-10.9 30-10.9 5.7 0 11.4 1.5 14.7 3.1l-4.4 20.1c-2.6-1.3-6.1-2.2-9.8-2.2-12.3 0-15.8 10.3-15.8 23.6v3.7h38.9v-4.6c0-13.8 3.7-27.6 12.9-36.3 7.9-7.4 18.6-10.3 28-10.3 7 0 12.9 1.3 17.1 2.6l-2 20.8c-2.8-1.1-6.3-2-11.4-2-13.3 0-17.9 11.2-17.9 24.3v5.5h23.4v20.1h-23.2v86.4h-26.9zm83.6-45.8c.7 19.3 15.5 27.6 32.8 27.6 12.5 0 21.2-2 29.5-4.8l3.9 18.4c-9.2 3.9-21.9 6.8-37.2 6.8-34.6 0-54.9-21.2-54.9-53.8 0-29.5 17.9-57.3 52.1-57.3 34.6 0 45.9 28.4 45.9 51.9 0 5-.4 9-.9 11.4h-71.2zm46.8-18.8c.2-9.8-4.2-26-22.1-26-16.6 0-23.6 15.1-24.7 26H674zm125.3 61.3c-5.7 2.6-16.8 5.5-30.2 5.5-33.3 0-54.9-21.4-54.9-54.5 0-31.9 21.9-56.7 59.3-56.7 9.8 0 19.9 2.2 26 4.8l-4.8 20.3c-4.4-2.2-10.7-4.2-20.3-4.2-20.6 0-32.8 15.1-32.6 34.6 0 21.9 14.2 34.3 32.6 34.3 9.2 0 16-2 21.2-4.2l3.7 20.1zM853.4 106v27.3H879v20.1h-25.6v47c0 13.1 3.5 19.7 13.8 19.7 4.8 0 7.4-.2 10.5-1.1l.4 20.3c-3.9 1.5-11.2 2.8-19.5 2.8-10.1 0-18.2-3.3-23.2-8.8-5.9-6.1-8.5-16-8.5-30v-50.1h-15.1v-20.1h15.1v-19.9l26.5-7.2zm44.8 108.9c5.9 3.7 17.5 7.9 27.1 7.9 11.8 0 17.1-5 17.1-12 0-7.2-4.4-10.7-17.5-15.5-20.8-7-29.3-18.4-29.3-31.1 0-18.8 15.5-33.3 40.3-33.3 11.8 0 22.1 2.8 28.4 6.3l-5.5 18.8c-4.4-2.6-13.1-6.1-22.5-6.1-9.6 0-14.9 4.8-14.9 11.4 0 6.8 5 9.8 18.6 14.9 19.5 6.8 28.2 16.6 28.4 32.4 0 19.5-15.1 33.5-43.3 33.5-12.9 0-24.5-3.1-32.4-7.4l5.5-19.8zm-750.7 67.3v111.5h-12.7V282.2h12.7zm20.3 111.4V282.2h11.9l20.5 52.3c4.6 12.1 10.4 26.8 14.2 38.9h.3c-1-17.5-1.5-31.9-1.5-51.3v-39.9h11.4v111.5h-11.9l-21.2-53.6c-4.6-11.2-9.4-24-13.4-37.9h-.3c1 14.9 1.3 29.1 1.3 52.9v38.5h-11.3zm89.8-100h-20.3v-11.4h53.4v11.4h-20.3v100.1h-12.7V293.6zm86.2 47.1h-28v41.8h31.8v11.1h-44.5V282.2h42.5v11.1h-29.8V330h28v10.7zm18-56.9c5.3-1.5 11.9-2.2 18.2-2.2 11.1 0 19.4 2.3 25.1 7.9 5.5 5.6 7.8 13.1 7.8 21.8 0 14.2-6.6 23.5-17.9 28.8v.3c8.3 2.5 12.6 10.4 14.9 25 2.6 15.2 4.8 24.6 6.5 28.1h-12.9c-1.7-3.3-3.8-13.9-6-27.5-2.5-15.4-7.3-21-18.2-21h-5v48.5h-12.6V283.8zm12.6 51.5h5.5c12.1 0 20.2-8.9 20.2-22.3 0-12.9-5.3-20.8-18.9-21-2.6 0-5.1.2-6.8.7v42.6zm55.1 58.3V282.2h11.9l20.5 52.3c4.6 12.1 10.4 26.8 14.2 38.9h.3c-1-17.5-1.5-31.9-1.5-51.3v-39.9h11.4v111.5h-11.9l-21.2-53.6c-4.6-11.2-9.4-24-13.4-37.9h-.3c1 14.9 1.3 29.1 1.3 52.9v38.5h-11.3zm90.1-33.4l-7.3 33.4h-12.4l25.5-111.5h14.1l24.8 111.5h-12.6l-7.3-33.4h-24.8zm23-10.2l-5.8-28.3c-1.7-7.9-3.1-17.2-4.5-25.5h-.5c-1.3 8.4-3 18-4.6 25.5l-5.8 28.3h21.2zm38.7-56.4H561v-11.4h53.4v11.4h-20.3v100.1h-12.7V293.6zm58.2-11.4v111.5h-12.7V282.2h12.7zm78.8 54.9c0 41.8-14.2 57.9-32.3 57.9-18.5 0-30.9-19.7-30.9-57.2 0-36.9 13.4-56.9 32.8-56.9 19-.1 30.4 20.6 30.4 56.2zm-50 .8c0 23 4.5 45.8 18.7 45.8s18-24.3 18-46.1c0-20.8-3.8-45.5-18.2-45.5-14 0-18.5 23.1-18.5 45.8zm65.4 55.7V282.2h11.9l20.5 52.3c4.6 12.1 10.4 26.8 14.2 38.9h.3c-1-17.5-1.5-31.9-1.5-51.3v-39.9h11.4v111.5h-11.9l-21.2-53.6c-4.6-11.2-9.4-24-13.4-37.9h-.3c1 14.9 1.3 29.1 1.3 52.9v38.5h-11.3zm90.1-33.4l-7.3 33.4h-12.4l25.5-111.5h14.1l24.8 111.5h-12.6l-7.3-33.4h-24.8zm23-10.2l-5.8-28.3c-1.7-7.9-3.1-17.2-4.5-25.5h-.5c-1.3 8.4-3 18-4.6 25.5l-5.8 28.3h21.2zm35.6-67.8h12.7v100.7h31.3v10.8h-44V282.2z"/><path class="st0" d="M1054.1 486.6H0V0h1054.1v486.6zM18 468.6h1018.1V18H18v450.6z"/></svg>