<svg xmlns="http://www.w3.org/2000/svg" viewBox="0 0 617.9 147"><path d="M79.7 63.8s-.1 0 0 0c-5.1-12.2-16.1-21.1-37.1-21.1-15.6 0-28.4 4.3-35.7 8.7l.7 2.2c2.1 6.9 9.3 10.7 16.2 8.8 4.7-1.3 9.7-2.1 14.7-2.1 17.4 0 20.2 10.7 20.2 17.2v1.6C22.1 79 0 91.5 0 116.4c0 15 11.1 29.3 30.9 29.3 4.1 0 8-.4 11.5-1.4l9.7-21.1.1-.3c-.1.1-.2.1-.2.2-3.4 2.9-8 4.8-13.4 4.8-7.9 0-14.3-4.5-14.3-14.2 0-15 17.3-18.8 34.3-18.4v13.9l.3-.7 20.8-44.7c0 .1-.1 0 0 0-.1 0 0 .1 0 0zM107.9 46.1c-5 0-10.1 1.6-14.7 4.7l-.2.3-34.5 74.2v20.4h7.6c9.4 0 17-7.6 17-17V95.8c0-2.8.6-5.5 1-7.7 2.2-11.1 10.3-18.8 22.2-18.8 3 0 5.6.4 7.3.8V46.7c-1.6-.4-3.2-.6-5.7-.6zM347.2 19.8h.1c6 0 11-4.5 11.5-10.5l.6-6.9C355.6 1 350.3 0 343.7 0c-8.7 0-18.1 2.6-25.4 9.5-8.7 8.1-11.9 20.8-11.9 33.6v4.2h-36.5v-3.8c0-12.3 3.4-21.9 14.7-21.9h.1c5.3 0 10-3.5 11.1-8.7l1.7-7.9c-3-1.4-8.3-2.8-13.6-2.8-1.6 0-3.3.1-4.8.2h-.1.2l-33.9 73.3v70h25.5V66h35.6v79.8H331V66h21.2v-9.6c0-5-4-9-9-9H331v-5c0-12.3 3.9-22.6 16.2-22.6zM469.1 126.1c-17 0-30.1-11.5-30.1-31.8-.2-18 11.1-32 30.1-32 2.5 0 4.7.2 6.7.4 7.1.9 13.7-3.5 15.4-10.5l1.1-4.7c-5.7-2.6-15-4.7-24.1-4.7-6.9 0-13.3.9-19 2.6l-32.5 70c6.9 18.8 24.1 30.1 47.4 30.1 12.3 0 22.7-2.6 27.9-5.1l-.8-4.4c-1.3-6.9-7.8-11.6-14.7-10.7-2.2.6-4.7.8-7.4.8zM531.9 65c7 0 11.7-6.7 11.7-13.7V47h-26V25.1l-22 52.3v32.7c0 12.9 2.9 22.5 8.1 28.2 4.7 5.1 12.9 8.7 22 8.7h.3c2.9 0 5.7-.8 8.1-1.1l4.5-10.2 2.5-5.2c-1.8-2.3-4.3-2.6-7.5-2.6h-.1c-3.1 0-7.1-1.9-9-3.3-3.8-2.7-6.9-9.4-6.9-17.4V65h14.3zM165.4 51.3v-6h-23.8V25.1l-23.8 52.3v32.7c0 12.9 2.2 21.9 7.4 27.5 4.7 5.1 12.2 8.1 21.3 8.1 7.9 0 14.3-1 17.9-2.4l-.2-8.3c-.1-5.3-4.5-9.5-9.9-9.5h-.1c-9.5 0-12.8-6.3-12.8-18.2V63.9h11.1c7.3 0 12.9-5.6 12.9-12.6zM421.5 52.2l-2.2 4.7c-2.8 6.1-10.1 8.8-16.2 6-.5-.2-1-.5-1.6-.6-2.1-.7-4.5-1.2-7.2-1.2-1.5 0-2.8.1-4.1.4-5.8 1-10 3.2-13 7.2-3.4 4.7-5.2 7.3-5.7 14.3h34.7c-2.5 8-6.3 10.5-11 13.4-1.6 1-3.3 2.3-5.1 3-3.4 1.3-7 2.5-10.8 2.5h-7.9c.2 7 2.6 12.6 6.3 16.7 3.5 3 7.7 5.2 12.3 6.2 2.5.6 5.1.9 7.8.9 2.8 0 5.2-.2 7.5-.5 2.1-.3 4.2-.1 6 .6l-6.2 13.6-2.5 5.4c-3 .3-6.3.5-9.7.5-1 0-2 0-3-.1-3.9-.2-7.6-.6-11.1-1.4-.3-.1-.6-.1-.9-.2-16-5.5-26.3-17.9-29.4-34.9-.7-3.7-1-7.6-1-11.7 0-21.3 10.1-41.6 29.4-49.5 4-1.6 8.4-2.8 13.2-3.2 1.8-.2 3.6-.3 5.5-.3 10.2 0 18.3 2.7 24.5 7.1.5.4.9.7 1.4 1.1zM591.6 84.6c-12.6-4.4-17.2-7.5-17.2-13.8 0-6.1 4.9-10.3 13.8-10.3 2.2 0 4.3.2 6.3.5 8.6 1.4 16.9-3.7 19.3-12.1l.1-.4c-5.7-3-15.2-5.9-26.1-5.9-3.3 0-6.3.3-9.2.8L557 90c4.4 4.8 11.2 9.1 20.7 12.4 12.1 4.3 16.2 7.7 16.2 14.4 0 6.5-4.9 10.9-15.8 10.9-3.1 0-6.5-.5-9.8-1.2-9-2-17.9 3.3-20.3 12.1 7.3 4 18 6.9 29.9 6.9 26.1 0 40.1-12.9 40.1-30.8-.3-14.5-8.6-23.6-26.4-30.1z"/><path d="M236.7 52.2l-2.2 4.7c-2.8 6.1-10.1 8.8-16.2 6-.5-.2-1-.5-1.6-.6-2.1-.7-4.5-1.2-7.2-1.2-1.5 0-2.8.1-4.1.4-5.8 1-10 3.2-13 7.2-3.4 4.7-5.2 7.3-5.7 14.3h34.7c-2.5 8-6.3 10.5-11 13.4-1.6 1-3.3 2.3-5.1 3-3.4 1.3-7 2.5-10.8 2.5h-7.9c.2 7 2.6 12.6 6.3 16.7 3.5 3 7.7 5.2 12.3 6.2 2.5.6 5.1.9 7.8.9 2.8 0 5.2-.2 7.5-.5 2.1-.3 4.2-.1 6 .6l-6.2 13.6-2.5 5.4c-3 .3-6.3.5-9.7.5-1 0-2 0-3-.1-3.9-.2-7.6-.6-11.1-1.4-.3-.1-.6-.1-.9-.2-16-5.5-26.3-17.9-29.4-34.9-.7-3.7-1-7.6-1-11.7 0-21.3 10.1-41.6 29.4-49.5 4-1.6 8.4-2.8 13.2-3.2 1.8-.2 3.6-.3 5.5-.3 10.2 0 18.3 2.7 24.5 7.1.6.4 1 .7 1.4 1.1z"/></svg>