<?xml version="1.0" encoding="utf-8"?>
<!-- Generator: Adobe Illustrator 19.1.0, SVG Export Plug-In . SVG Version: 6.00 Build 0)  -->
<svg version="1.1" id="Layer_1" xmlns="http://www.w3.org/2000/svg" xmlns:xlink="http://www.w3.org/1999/xlink" x="0px" y="0px"
	 viewBox="0 0 4770.4 986.3" style="enable-background:new 0 0 4770.4 986.3;" xml:space="preserve">
<style type="text/css">
	.st0{fill:#FF9800;}
	.st1{fill:#212121;}
</style>
<g>
	<path class="st0" d="M174.7,387l-8.8-8.8c-26.4-26.4-39.5-61-39.5-95.5c0-34.4,13.3-68.9,39.5-95.1c26.3-26.3,60.9-39.5,95.4-39.5
		c34.4,0,68.9,13.3,95.2,39.5l236.9,236.9l75.3-75.3l1.6-1.6l-1.6-1.7L434,111.1C410.8,88,383.8,70,353.5,57.7
		c-29.3-11.9-60.2-17.9-91.7-17.9c-64.2-0.1-127,25.9-172.5,71.4c-23.1,23.1-41.5,50.2-53.8,80.5c-11.9,29.3-18.3,60-18.3,91.5v0.4
		v0.3c0,31.5,6.4,62.2,18.3,91.5c12.3,30.3,30.5,57.4,53.6,80.5l6.8,6.6l1.7,1.7l1.7-1.7L174.7,387z"/>
	<path class="st0" d="M768,599.1l8.7,8.7c26.4,26.4,39.5,61.1,39.5,95.6c0,34.4-13.3,68.9-39.5,95.1c-26.3,26.3-61,39.5-95.4,39.5
		c-34.4,0-69-13.2-95.2-39.5L349.2,561.5l-75.3,75.3l-1.7,1.7l1.7,1.7L508.7,875c23.1,23.2,50.2,41.2,80.5,53.5
		c29.3,11.9,60.2,18,91.7,17.9c64.2,0.1,127-25.9,172.4-71.4c23.1-23.1,41.4-50.2,53.7-80.4c11.9-29.3,18.2-60.1,18.2-91.5v-0.4
		v-0.3c0-31.4-6.3-62.2-18.2-91.5c-12.3-30.3-30.4-57.3-53.6-80.5l-6.7-6.6l-1.7-1.7l-1.7,1.7L768,599.1z"/>
	<path class="st0" d="M508.7,111.1l-6.6,6.6l-1.7,1.7l1.7,1.7l75.3,75.3l8.7-8.7c26.4-26.4,61.1-39.5,95.5-39.5
		c34.4,0,68.9,13.3,95.1,39.5c26.4,26.3,39.5,60.9,39.5,95.4c0,34.4-13.2,69-39.5,95.2L539.8,615.2l75.3,75.4l1.6,1.7l1.7-1.7
		l234.8-234.8c23.2-23.1,41.2-50.2,53.5-80.5c11.9-29.3,17.9-60.2,17.9-91.6c0.1-64.2-25.9-127.1-71.4-172.5
		c-23.1-23.1-50.2-41.3-80.4-53.7c-29.3-11.9-60.1-18.2-91.5-18.2H681h-0.3c-31.4,0-62.2,6.3-91.5,18.2
		C558.9,69.8,531.8,88,508.7,111.1z"/>
	<path class="st0" d="M434,875l6.6-6.6l1.7-1.7l-1.7-1.6l-75.3-75.3l-8.7,8.7c-26.4,26.4-61,39.5-95.5,39.5
		c-34.4,0-68.9-13.2-95.1-39.5c-26.3-26.3-39.5-60.9-39.5-95.4c0-34.5,13.2-68.9,39.5-95.2l236.9-236.9l-75.3-75.3l-1.7-1.7
		l-1.7,1.7L89.4,530.4c-23.2,23.2-41.1,50.3-53.4,80.5C24,640.2,18,671,18,702.6c-0.1,64.2,25.9,127,71.3,172.4
		c23.1,23.2,50.2,41.6,80.5,53.9c29.3,11.9,60,18.3,91.5,18.3h0.4h0.4c31.4,0,62.2-6.5,91.5-18.3C383.8,916.6,410.8,898.2,434,875z"
		/>
</g>
<g>
	<path class="st1" d="M1269.1,946.9c-48.4,0-89.7-7-123.8-21.1s-61-34.6-80.6-61.6c-19.6-27-33.4-58-41.9-92.9
		c-8.5-34.9-12.6-75.4-12.6-121.7V337.4c0-48,4-89.7,12.6-124.9c8.5-35.2,22.5-66.2,42-92.9s46.3-46.8,80.3-60.3
		c34-13.5,75.3-20.3,124.1-20.3c46.2,0,85.6,6,118.2,17.9c32.5,11.9,58.1,29.4,76.8,52.6s32.1,49.7,40.5,79.8s12.5,65.2,12.5,105.4
		v76.5h-175v-82.9c0-10,0-16.9,0-20.8s-0.4-10.3-0.8-19.2c-0.4-8.9-1.1-15.2-2-18.9s-2.2-9.2-3.8-16.3s-3.6-12.3-5.9-15.5
		c-2.3-3.2-5.3-7.1-8.8-11.7s-7.7-7.9-12.5-9.9c-4.8-2-10.5-3.7-17.1-5.3c-6.6-1.6-13.8-2.4-21.6-2.4c-13.9,0-25.7,2.4-35.5,7.2
		s-17.3,10.8-22.7,17.9c-5.3,7.1-9.4,16.8-12.3,29.1s-4.4,23.7-5.2,34.2s-0.9,23.8-0.9,39.8v395.5c0,43.1,5.2,74.7,16.1,95
		s31,30.4,60.5,30.4c11.4,0,21.3-1.4,29.8-4.3c8.5-2.8,15.4-7.5,20.5-14.1c5.2-6.6,9.2-13,12.3-19.2s5.2-15,6.4-26.4
		c1.2-11.4,2.3-21,2.6-28.8s0.8-18.7,0.8-32.6v-86.6h175V680c0,40.9-4,76.8-12,107.5s-21.1,58.5-39.2,83.2
		c-18.2,24.7-43.8,43.6-76.8,56.6C1356.1,940.4,1316.1,946.9,1269.1,946.9z"/>
	<path class="st1" d="M1592.2,935.2v-885h215.6c55.9,0,102.4,5.2,139.6,15.5c37.2,10.3,66.9,27.2,89.1,50.7
		c22.2,23.5,37.8,52,47.1,85.7s13.7,75.7,13.7,126.2v319.2c0,51.2-4.4,94.3-13.7,129.2s-24.8,64.5-46.9,88.9
		c-22.1,24.4-51.4,42.1-88,53.1s-82.1,16.6-136.6,16.6H1592.2z M1772.2,809.2h37.7c12.4,0,23.6-0.5,33.3-1.9s18.2-3.8,25.4-7.3
		c7.1-3.6,13.2-7.1,18.1-10.9s9.2-9.1,12.5-16.3s6-13.8,8-20c2-6.2,3.4-14.9,4.3-25.9s1.3-20.8,1.5-29.3c0.2-8.5,0.1-20.1,0.1-34.7
		V308.1c0-21-0.4-37.7-1.5-50.2s-3.5-24.5-7.4-36s-9.7-20.2-17.3-25.9s-17.9-10.3-30.7-13.6s-28.8-5.1-48-5.1h-36.1V809.2z"/>
	<path class="st1" d="M2198.2,935.2v-885h47.8l300.2,747.2V50.2h53v885h-47.4l-300.6-748.8v748.8H2198.2z"/>
	<path class="st1" d="M2682.2,935.2l185.7-885h68.3l187.3,885h-59.8l-45.9-245h-229.5l-47.5,245H2682.2z M2796.9,646.2h212.4
		l-106.7-524.1L2796.9,646.2z"/>
	<path class="st1" d="M3385.2,946.4c-129.9,0-201.2-76.5-214-229.5l52.3-16.5c3.2,25.3,7,47.2,11.5,65.7
		c4.4,18.5,10.8,36.4,18.9,53.6s18,31.3,29.4,42.2c11.4,10.8,25.7,19.5,43,25.9s37.1,9.6,59.5,9.6c94.3,0,141.4-47.5,141.4-142.5
		c0-36.3-9.2-69.4-27.5-99.3c-18.3-29.9-47.6-64.8-87.8-104.6l-161.7-161.2c-51.2-51.2-76.8-107.3-76.8-168.1
		c0-57.6,17.5-102.1,52.6-133.6c35-31.5,82.1-47.7,141.2-47.7h1.6c63,0,111.5,17,145.7,50.9c34.2,34,53.7,91,58.7,171l-50.2,11.7
		c-5.7-64-19.7-111-41.9-140.9c-22.2-29.9-57.9-44.8-107-44.8h-5.3c-43.1,1-77.4,11.6-103,32.8c-25.6,21.2-38.4,53.3-38.4,96.3
		c0,23.1,5,45.3,14.9,66.4c10,21.2,26.7,43.7,50.2,67.5l159.6,157.4c40.9,40.6,73,80.3,96.3,119.3c23.3,39,35,80.1,35,123.5
		c0,64-17.9,112.5-53.6,145.4S3445.7,946.4,3385.2,946.4z"/>
	<path class="st1" d="M3813.2,935.2V652.3L3609,50.2h61.4l173.5,531l165.5-531h60.8l-197.9,602.1v282.9H3813.2z"/>
	<path class="st1" d="M4142.2,935.2v-885h59v885H4142.2z"/>
	<path class="st1" d="M4333.2,935.2v-885h194.2c42.7,0,79.1,6.4,109.1,19.2s53.5,31.1,70.2,55s28.5,50.4,35.8,79.8
		c7.3,29.4,10.7,62.7,10.7,100.1v367.2c0,40.2-3.4,75.6-10.7,106.2c-7.3,30.6-19,58.1-35.4,82.5s-39.2,43-68.5,55.8
		c-29.4,12.8-64.8,19.2-106.4,19.2H4333.2z M4393.2,888.2h136.3c27.8,0,51.7-4,71.8-12s36-18.4,47.8-31.2s21-29.4,27.8-49.6
		c6.8-20.3,11.1-40.4,13.3-60.3s3.1-43.2,3.1-69.9v-356c0-27.4-1.4-51.4-4.2-72c-2.8-20.6-7.9-40-15.2-58.2
		c-7.3-18.1-17.2-32.9-29.6-44.3c-12.5-11.4-28.5-20.1-48-26.7c-19.6-6.6-42.7-9.7-69.4-9.7h-133.6V888.2z"/>
</g>
</svg>
