<svg xmlns="http://www.w3.org/2000/svg" viewBox="0 0 255.226 255.226"><path d="M76.532 27.975l-7.405-5.244-.254-.19-.477-.19-5.403-2.574.16.38c-5.118-2.097-10.49-3.59-16.337-3.59C20.946 16.566 0 38.336 0 65.192s20.976 48.627 46.816 48.627c8.295 0 15.955-2.417 22.724-6.358-2.32 25.998-15.415 63.915-63.406 102.594-6.706 5.403-7.946 15.446-2.733 22.407 3.053 4.1 7.598 6.198 12.175 6.198 3.305 0 6.61-1.11 9.44-3.336 58.892-47.547 73.607-96.364 75.578-128.973 3.37-41.7-9.28-63.63-20.85-75.07l-3.21-3.306zM233.76 31.28l-3.242-3.305-7.374-5.244-.254-.19-.51-.19-5.402-2.574.16.38c-5.118-2.097-10.52-3.59-16.37-3.59-25.838 0-46.75 21.77-46.75 48.627s20.912 48.627 46.815 48.627c8.295 0 15.955-2.416 22.724-6.357-2.288 25.998-15.383 63.915-63.374 102.594-6.738 5.403-7.946 15.446-2.733 22.407 3.05 4.1 7.596 6.198 12.173 6.198 3.305 0 6.61-1.112 9.44-3.337 58.924-47.547 73.607-96.364 75.61-128.973 3.37-41.7-9.28-63.63-20.913-75.072z" fill="#090509"/></svg>